<?xml version="1.0" encoding="utf-8"?>
<!-- Generator: Adobe Illustrator 21.0.0, SVG Export Plug-In . SVG Version: 6.00 Build 0)  -->
<svg version="1.1" id="Layer_1" xmlns="http://www.w3.org/2000/svg" xmlns:xlink="http://www.w3.org/1999/xlink" x="0px" y="0px"
	 viewBox="0 0 153.5 61" style="enable-background:new 0 0 153.5 61;" xml:space="preserve">
<style type="text/css">
	.st0{fill:#67777B;}
	.st1{fill:#8A9A9E;}
</style>
<title>airship-2tone-logo</title>
<g id="Layer_1_2_">
	<g id="Assets_1_">
		<g id="airship-logo-grey-2tone_1_">
			<path id="Shape_1_" class="st0" d="M83.6,11.9c-1.6-4.1-5.8-7.4-6.8-7.4h-0.2c-1,0-5.2,3.3-6.8,7.4C69.5,13,71.5,28.5,72,30.8
				c0,0.3,0.2,0.5,0.5,0.5h2.4c-0.1-0.8-0.1-1.5-0.2-2.3c-0.2-2.2-0.3-4.3-0.3-6.5c0.4-1,1.5-2.4,2.3-2.4l0,0c0.8,0,1.9,1.4,2.3,2.4
				c0.2,0.4-0.2,5.1-0.5,8.8H81c0.3,0,0.5-0.3,0.5-0.5C82,28.5,84,13.1,83.6,11.9L83.6,11.9z M79.2,15.9c0,0.2-0.1,0.3-0.2,0.1
				c-0.5-0.8-1.3-1.4-2.2-1.8l0,0c-0.9,0.4-1.6,1-2.2,1.8c-0.1,0.2-0.2,0.1-0.2-0.1c0-0.6-0.1-2.3,0-2.4c0.6-1.6,2.1-3,2.4-3l0,0
				c0.4,0,1.9,1.3,2.4,3C79.3,14.3,79.3,15.1,79.2,15.9L79.2,15.9z"/>
			<path id="Shape-2_1_" class="st1" d="M67.7,35.5c-0.8-0.8-2.8-8.3-2.8-10.4c0.1-0.7,0.3-1.3,0.8-1.7c1.2-1.1,2.4-2.1,3.8-2.9
				c0.4,3.7,1.4,9.3,1.6,10.5C70.6,32.2,68.7,35.1,67.7,35.5L67.7,35.5z"/>
			<path id="Shape-3_1_" class="st0" d="M85.8,35.5c0.8-0.8,2.8-8.3,2.8-10.4c-0.1-0.7-0.3-1.3-0.8-1.7c-1.2-1.1-2.4-2.1-3.8-2.9
				c-0.4,3.7-1.4,9.3-1.6,10.5C82.9,32.2,84.8,35.1,85.8,35.5L85.8,35.5z"/>
			<path id="Shape-4_1_" class="st1" d="M149,7.8h-11.4c-0.1,1.7-2.9,5.2-4.7,6.3h9.9c1.6,0.2,3.1-0.4,4.2-1.6
				c1.2-1.1,2.1-2.4,2.8-3.8C150,8.1,149.9,7.8,149,7.8L149,7.8z"/>
			<path id="Shape-5_1_" class="st0" d="M135.4,7.8c-0.7,0-38.6-0.1-41.2,0c-1.2,0-2.3,0.5-3.2,1.3c-0.9,0.8-6.6,7.9-6.6,8
				c0,0.5-0.1,1.2-0.1,1.6c0,0.4,0.1,0.5,0.4,0.8c0.2,0.1,1,0.7,1.3,0.9c1.7-1.8,3.4-3.5,5.3-5.1c1.3-1.1,2.3-1.3,4.9-1.3h33
				c1.6,0.2,3.1-0.4,4.2-1.6c1.2-1.1,2.1-2.4,2.8-3.8C136.5,8.1,136.3,7.8,135.4,7.8L135.4,7.8z"/>
			<path id="Shape-6_1_" class="st1" d="M133,15.2h-11.4c-0.1,1.7-2.6,4.8-4.4,5.9h9.9c1.6,0.2,3.1-0.4,4.2-1.6
				c1.1-1,1.9-2.1,2.5-3.4C134,15.5,133.9,15.2,133,15.2L133,15.2z"/>
			<path id="Shape-7_1_" class="st0" d="M119.4,15.2c-0.7,0-21.8-0.1-24.3-0.1c-1.4-0.1-2.8,0.3-3.8,1.3c-0.9,0.8-4.6,4.5-4.6,4.5
				c0.9,0.7,1.8,1.5,2.5,2.4c0.6-0.5,1.1-0.9,1.8-1.4c1.3-1,2.8-0.9,5.5-0.9l17,0.1c1.6,0.2,3.1-0.4,4.2-1.6c1.1-1,1.9-2.1,2.5-3.4
				C120.5,15.5,120.3,15.2,119.4,15.2L119.4,15.2z"/>
			<path id="Shape-8_1_" class="st1" d="M117.5,22.1h-11.4c-0.1,1.7-2.6,4.8-4.4,5.9h10c1.6,0.2,3.1-0.4,4.2-1.6
				c1.1-1,1.9-2.1,2.5-3.4C118.6,22.5,118.4,22.1,117.5,22.1L117.5,22.1z"/>
			<path id="Shape-9_1_" class="st0" d="M103.9,22.1c-0.7,0-7.6-0.1-10.1-0.1c-1.1-0.1-2.2,0.3-3,1.1c-0.4,0.3-0.8,0.7-1.1,1
				c0.3,0.9,0,2.3-0.3,3.8c0.5,0,7.6,0.1,8.8,0.1c1.6,0.2,3.1-0.4,4.2-1.6c1.1-1,1.9-2.1,2.5-3.4C105,22.5,104.9,22.2,103.9,22.1
				L103.9,22.1z"/>
			<path id="Shape-10_1_" class="st0" d="M78.3,22.8c-0.3-0.8-0.8-1.5-1.5-1.9l0,0c-0.7,0.4-1.3,1.1-1.5,1.9c-0.1,0.3,0.5,11,1,12.8
				c0.1,0.3,0.4,1,0.6,1c0.3-0.3,0.5-0.6,0.6-1C77.8,34.2,78.4,23.1,78.3,22.8L78.3,22.8z"/>
			<path id="Shape-11_1_" class="st1" d="M76.8,14.3L76.8,14.3c-0.9,0.4-1.7,1-2.2,1.8c-0.1,0.2-0.2,0.1-0.2-0.1
				c0-0.6-0.1-2.3,0-2.4c0.6-1.6,2.1-3,2.4-3l0,0v-6h-0.1c-1,0-5.2,3.3-6.8,7.4c-0.4,1.1,1.6,16.5,2.1,18.8c0,0.3,0.2,0.5,0.5,0.5
				H75c-0.1-0.8-0.1-1.5-0.2-2.3c-0.2-2.2-0.3-4.3-0.3-6.5c0.4-1,1.5-2.4,2.3-2.4l0,0L76.8,14.3L76.8,14.3z"/>
			<path id="Shape-12_1_" class="st1" d="M76.8,20.9c-0.7,0.4-1.3,1.1-1.5,1.9c-0.1,0.3,0.5,11,1,12.8c0.1,0.3,0.4,1,0.6,1l0,0
				L76.8,20.9L76.8,20.9z"/>
			<path id="Shape-13_1_" class="st1" d="M4.6,7.8H16c0.1,1.7,2.9,5.2,4.7,6.3h-10c-1.6,0.2-3.1-0.4-4.2-1.6
				C5.4,11.3,4.4,10,3.7,8.6C3.5,8.1,3.6,7.8,4.6,7.8L4.6,7.8z"/>
			<path id="Shape-14_1_" class="st1" d="M20.6,15.2H32c0.1,1.7,2.6,4.8,4.4,5.9h-10c-1.6,0.2-3.1-0.4-4.2-1.6
				c-1.1-1-1.9-2.1-2.5-3.4C19.5,15.5,19.6,15.2,20.6,15.2L20.6,15.2z"/>
			<path id="Shape-15_1_" class="st0" d="M34.1,15.2c0.7,0,21.8-0.1,24.3-0.1c1.4-0.1,2.8,0.3,3.8,1.3c0.9,0.8,4.6,4.5,4.6,4.5
				c-0.9,0.7-1.8,1.5-2.5,2.4c-0.6-0.5-1.1-0.9-1.8-1.4c-1.3-1-2.8-0.9-5.5-0.9l-17,0.1c-1.6,0.2-3.1-0.4-4.2-1.6
				c-1.1-1-1.9-2.1-2.5-3.4C33,15.5,33.2,15.2,34.1,15.2L34.1,15.2z"/>
			<path id="Shape-16_1_" class="st1" d="M36.1,22.1h11.4c0.1,1.7,2.6,4.8,4.4,5.9h-10c-1.6,0.2-3.1-0.4-4.2-1.6
				c-1.1-1-1.9-2.1-2.5-3.4C35,22.5,35.1,22.1,36.1,22.1L36.1,22.1z"/>
			<path id="Shape-17_1_" class="st0" d="M49.6,22.1c0.7,0,7.6-0.1,10.1-0.1c1.1-0.1,2.2,0.3,3,1.1c0.4,0.3,0.8,0.7,1.2,1
				c-0.3,0.9,0,2.3,0.3,3.8c-0.5,0-7.6,0.1-8.8,0.1c-1.6,0.2-3.1-0.4-4.2-1.6c-1-1-1.9-2.1-2.5-3.4C48.6,22.5,48.8,22.2,49.6,22.1
				L49.6,22.1z"/>
			<path id="Shape-18_1_" class="st0" d="M18.1,7.8c0.7,0,38.6-0.1,41.2,0c1.2,0,2.3,0.5,3.2,1.3c0.9,0.8,6.6,7.9,6.6,8
				c0,0.5,0.1,1.2,0.1,1.6c0,0.4-0.1,0.5-0.4,0.8c-0.2,0.1-1,0.7-1.3,0.9c-1.7-1.8-3.4-3.5-5.3-5.1C61,14.2,60,14,57.3,14h-33
				c-1.6,0.2-3.1-0.4-4.2-1.6C19,11.3,18,10,17.3,8.6C17.1,8.1,17.2,7.8,18.1,7.8L18.1,7.8z"/>
		</g>
	</g>
</g>
<g>
	<path class="st1" d="M82.6,45.7c-0.2-0.1-0.4-0.1-0.6-0.2c0-0.1,0.1-0.3,0.1-0.4c0.4-2.2,0.2-3.9-0.8-4.5c-1-0.5-2.5,0-4.1,1.4
		c-0.2,0.1-0.3,0.3-0.5,0.4c-0.1-0.1-0.2-0.2-0.3-0.3c-1.6-1.5-3.3-2.1-4.3-1.5c-1,0.6-1.2,2.2-0.8,4.2c0,0.2,0.1,0.4,0.1,0.6
		c-0.2,0.1-0.5,0.1-0.7,0.2c-1.9,0.7-3.2,1.7-3.2,2.8c0,1.1,1.3,2.3,3.3,3c0.2,0.1,0.3,0.1,0.5,0.2c-0.1,0.2-0.1,0.4-0.1,0.7
		c-0.4,2-0.1,3.6,0.9,4.2c1,0.6,2.6,0,4.2-1.4c0.1-0.1,0.3-0.2,0.4-0.4c0.2,0.2,0.3,0.3,0.5,0.4c1.6,1.3,3.1,1.9,4,1.3
		c1-0.6,1.3-2.3,0.9-4.4c0-0.2-0.1-0.3-0.1-0.5c0.1,0,0.2-0.1,0.3-0.1c2.1-0.7,3.5-1.8,3.5-3C85.9,47.4,84.6,46.4,82.6,45.7z
		 M77.7,42.6c1.3-1.2,2.6-1.6,3.2-1.3c0.6,0.4,0.8,1.8,0.5,3.6c0,0.1-0.1,0.2-0.1,0.4c-0.8-0.2-1.6-0.3-2.4-0.4
		c-0.5-0.7-1-1.4-1.5-1.9C77.5,42.9,77.6,42.7,77.7,42.6z M73,49.5c0.2,0.3,0.3,0.6,0.5,0.9c0.2,0.3,0.4,0.6,0.6,0.9
		c-0.6-0.1-1.2-0.2-1.7-0.3C72.6,50.6,72.8,50,73,49.5z M73,47.6c-0.2-0.5-0.4-1.1-0.6-1.6c0.5-0.1,1.1-0.2,1.7-0.3
		c-0.2,0.3-0.4,0.6-0.6,0.9C73.4,47,73.2,47.3,73,47.6z M73.4,48.6c0.2-0.5,0.5-1,0.8-1.5v0c0.3-0.5,0.6-1,0.9-1.4
		c0.5,0,1.1-0.1,1.7-0.1c0.6,0,1.1,0,1.7,0.1c0.3,0.5,0.6,0.9,0.9,1.4c0.3,0.5,0.5,1,0.8,1.5c-0.2,0.5-0.5,1-0.8,1.5h0
		c-0.3,0.5-0.6,1-0.9,1.4c-0.5,0-1.1,0.1-1.7,0.1c-0.6,0-1.1,0-1.7-0.1c-0.3-0.5-0.6-0.9-0.9-1.4C73.9,49.5,73.7,49.1,73.4,48.6z
		 M80,50.4c0.2-0.3,0.4-0.6,0.5-1c0.2,0.6,0.4,1.1,0.6,1.6c-0.5,0.1-1.1,0.2-1.7,0.3C79.6,51,79.8,50.7,80,50.4z M80.5,47.6
		c-0.2-0.3-0.3-0.6-0.5-0.9c-0.2-0.3-0.4-0.6-0.6-0.9c0.6,0.1,1.1,0.2,1.7,0.3C80.9,46.6,80.7,47.1,80.5,47.6z M76.8,43.6
		c0.4,0.4,0.7,0.8,1.1,1.3c-0.7,0-1.4,0-2.2,0C76,44.4,76.4,44,76.8,43.6z M72.6,41.3c0.6-0.4,2,0.2,3.4,1.4
		c0.1,0.1,0.2,0.2,0.3,0.3c-0.5,0.6-1.1,1.2-1.6,1.9c-0.9,0.1-1.7,0.2-2.4,0.4c0-0.2-0.1-0.4-0.1-0.6v0C71.8,43,72,41.7,72.6,41.3z
		 M71.7,50.9c-0.2,0-0.3-0.1-0.5-0.1c-0.9-0.3-1.6-0.7-2.1-1.1c-0.5-0.4-0.7-0.8-0.7-1.1c0-0.7,1-1.5,2.6-2.1
		c0.2-0.1,0.4-0.1,0.6-0.2c0.2,0.7,0.5,1.5,0.9,2.3C72.2,49.4,71.9,50.1,71.7,50.9z M75.9,54.4c-0.7,0.6-1.4,1.1-2,1.3h0
		c-0.6,0.2-1,0.2-1.3,0c-0.6-0.3-0.8-1.6-0.5-3.3c0-0.2,0.1-0.4,0.1-0.6c0.7,0.2,1.6,0.3,2.5,0.4c0.5,0.7,1,1.4,1.6,1.9
		C76.1,54.2,76,54.3,75.9,54.4z M76.8,53.6c-0.4-0.4-0.7-0.8-1.1-1.3c0.3,0,0.7,0,1.1,0c0.4,0,0.7,0,1.1,0
		C77.5,52.7,77.1,53.2,76.8,53.6z M81.5,54.6c-0.1,0.6-0.3,1-0.6,1.1c-0.6,0.3-1.8-0.1-3.1-1.2c-0.2-0.1-0.3-0.3-0.5-0.4
		c0.5-0.6,1-1.2,1.5-1.9c0.9-0.1,1.7-0.2,2.5-0.4c0,0.2,0.1,0.3,0.1,0.4C81.6,53.2,81.6,54,81.5,54.6z M82.2,50.8L82.2,50.8
		c-0.1,0-0.2,0.1-0.3,0.1c-0.2-0.7-0.5-1.5-0.9-2.3c0.4-0.8,0.7-1.6,0.9-2.3c0.2,0.1,0.4,0.1,0.5,0.2c1.7,0.6,2.7,1.4,2.7,2.1
		C85.1,49.2,84,50.2,82.2,50.8z"/>
	<path class="st1" d="M76.8,46.9c0.9,0,1.6,0.7,1.6,1.6c0,0.9-0.7,1.6-1.6,1.6c-0.9,0-1.6-0.7-1.6-1.6
		C75.1,47.6,75.9,46.9,76.8,46.9"/>
</g>
</svg>
